<?xml version="1.0" encoding="utf-8"?>
<!-- Generator: Adobe Illustrator 19.0.0, SVG Export Plug-In . SVG Version: 6.00 Build 0)  -->
<svg version="1.1" id="レイヤー_1" xmlns="http://www.w3.org/2000/svg" xmlns:xlink="http://www.w3.org/1999/xlink" x="0px"
	 y="0px" viewBox="-145 232 691.9 81" style="enable-background:new -145 232 691.9 81;" xml:space="preserve">
<style type="text/css">
	.st0{stroke:#000000;stroke-miterlimit:10;}
</style>
<path id="XMLID_3_" class="st0" d="M-73.6,247.5h25.7l-1,4.7h-20.4l-3.7,17.2h17.2l-0.9,4.7h-17.2l-5.5,25.7h-5.3L-73.6,247.5z"/>
<path id="XMLID_5_" class="st0" d="M-34.6,258.9l-6,27.9c-1.3,6-0.2,8.8,5.3,8.8c6.6,0,8.6-2.9,9.9-8.8l6-27.9h5.3l-6.5,30.4
	c-1.2,5.4-6.2,11.2-15.2,11.2c-8.9,0-11.6-5.6-10.4-11.5l6.4-30.1H-34.6z"/>
<path id="XMLID_7_" class="st0" d="M0.4,258.9h13.9c6.8,0,11.5,3.2,9.9,11.1c-1.1,5-5.5,10-10.8,11.5l6.5,16.6l-5.2,2.7l-6.5-18.5
	H0.6l-3.7,17.5h-5.3L0.4,258.9z M8.5,277.6c5.2,0,9.1-2.9,10.1-7.5c0.8-3.7-0.9-6.4-5.6-6.4H4.5l-3,14h7V277.6z"/>
<path id="XMLID_10_" class="st0" d="M37.8,258.9h6.5l8.5,34.5l0.2-0.2l1.8-10.6l5-23.7h5.3l-8.7,40.9h-6.5l-8.6-34.5l-0.2,0.2
	l-1.8,10.7l-5,23.6H29L37.8,258.9z"/>
<path id="XMLID_12_" class="st0" d="M74.6,295.1h5.7l6.7-31.5h-5.7l1-4.7h16.8l-1,4.7h-5.8l-6.7,31.5h5.8l-1,4.7H73.6L74.6,295.1z"
	/>
<path id="XMLID_14_" class="st0" d="M126.4,263.6h-11.3l1-4.7h27.6l-1,4.7h-11.1l-7.6,36.2h-5.3L126.4,263.6z"/>
<path id="XMLID_16_" class="st0" d="M161.6,258.9l-6,27.9c-1.3,6-0.2,8.8,5.3,8.8c6.6,0,8.6-2.9,9.9-8.8l6-27.9h5.3l-6.5,30.4
	c-1.2,5.4-6.2,11.2-15.2,11.2c-8.9,0-11.6-5.6-10.4-11.5l6.4-30.1H161.6z"/>
<path id="XMLID_18_" class="st0" d="M196.6,258.9h13.9c6.8,0,11.5,3.2,9.9,11.1c-1.1,5-5.5,10-10.8,11.5l6.5,16.6l-5.2,2.7
	l-6.5-18.5h-7.6l-3.7,17.5h-5.3L196.6,258.9z M204.7,277.6c5.2,0,9.1-2.9,10.1-7.5c0.8-3.7-0.9-6.4-5.6-6.4h-8.5l-3,14h7V277.6z"/>
<path id="XMLID_21_" class="st0" d="M236.4,258.9h25.5l-1,4.7h-20.2l-2.6,12.2h16.7l-1,4.7h-16.7l-3.1,14.6h20.2l-1,4.7h-25.5
	L236.4,258.9z"/>
<path id="XMLID_23_" class="st0" d="M274.3,276.9h17.4l-1,4.9h-17.4L274.3,276.9z"/>
<path id="XMLID_25_" class="st0" d="M311.6,286.9c-0.1,5,1.6,8.7,7.1,8.7c4.3,0,8.2-2.4,9.2-6.9c1.1-5-2.9-6.3-6.5-7.9
	c-5.5-2.5-10.8-4.1-9.1-11.8c1.4-6.9,7.8-10.8,14.3-10.8c6.8,0,10,3.9,10.3,10.3l-5.3,1.5c-0.1-4-1.6-6.8-6.1-6.8
	c-3.4,0-7,1.7-7.8,5.4c-0.9,3.8,1.3,5,4.1,6.4l7.9,3.8c3.2,2,4.6,5.3,3.6,9.6c-1.6,7.8-8,12.2-15.5,12.2c-7.6,0-11.4-4.9-11.1-12.2
	L311.6,286.9z"/>
<path id="XMLID_27_" class="st0" d="M361.8,263.6h-11.3l1-4.7h27.6l-1,4.7H367l-7.7,36.2H354L361.8,263.6z"/>
<path id="XMLID_29_" class="st0" d="M414.7,279.4c-0.7,3.3-4.7,21.1-19,21.1c-6.6,0-13.5-4.7-10-21.1c3.5-16.3,12.3-21.2,19.1-21.2
	C411.3,258.2,418.3,262.9,414.7,279.4z M391.2,279.4c-1.3,6-2.4,16.2,5.6,16.2c7.9,0,11.2-10.2,12.5-16.2s2.4-16.2-5.6-16.2
	S392.5,273.4,391.2,279.4z"/>
<path id="XMLID_32_" class="st0" d="M432,258.9h13.9c6.8,0,11.5,3.2,9.9,11.1c-1.1,5-5.5,10-10.8,11.5l6.5,16.6l-5.2,2.7l-6.5-18.5
	h-7.6l-3.7,17.5h-5.3L432,258.9z M440.2,277.6c5.2,0,9.1-2.9,10.1-7.5c0.8-3.7-0.9-6.4-5.6-6.4h-8.5l-3,14h7V277.6z"/>
<path id="XMLID_35_" class="st0" d="M471.9,258.9h25.5l-1,4.7h-20.2l-2.6,12.2h16.7l-1,4.7h-16.7l-3.1,14.5h20.2l-1,4.7h-25.5
	L471.9,258.9z"/>
</svg>
